HIERARCHY
ROOT Pelvis
{
	OFFSET 0.000000 0.000000 0.000000
	CHANNELS 6 Xposition Yposition Zposition Xrotation Yrotation Zrotation
	JOINT LeftUpLeg_virtual
	{
		OFFSET 0.000000 0.000000 0.000000
		CHANNELS 3 Xrotation Yrotation Zrotation
		JOINT LeftUpLeg
		{
			OFFSET 18.735201 -5.666702 -4.541200
			CHANNELS 3 Xrotation Yrotation Zrotation
			JOINT LeftLeg
			{
				OFFSET -0.021200 -31.938179 0.493100
				CHANNELS 3 Xrotation Yrotation Zrotation
				JOINT LeftFoot
				{
					OFFSET 0.021200 -31.938179 -4.336299
					CHANNELS 3 Xrotation Yrotation Zrotation
					JOINT LeftToeBase
					{
						OFFSET 0.943001 -26.722000 15.023500
						CHANNELS 3 Xrotation Yrotation Zrotation
						End Site
						{
							OFFSET 0 0 0
						}
					}
				}
			}
		}
	}
	JOINT RightUpLeg_virtual
	{
		OFFSET 0.000000 0.000000 0.000000
		CHANNELS 3 Xrotation Yrotation Zrotation
		JOINT RightUpLeg
		{
			OFFSET -18.735201 -5.666702 -4.541200
			CHANNELS 3 Xrotation Yrotation Zrotation
			JOINT RightLeg
			{
				OFFSET 0.018946 -31.938133 0.493100
				CHANNELS 3 Xrotation Yrotation Zrotation
				JOINT RightFoot
				{
					OFFSET -0.018946 -31.938126 -4.336299
					CHANNELS 3 Xrotation Yrotation Zrotation
					JOINT RightToeBase
					{
						OFFSET -0.943001 -26.722004 15.023500
						CHANNELS 3 Xrotation Yrotation Zrotation
						End Site
						{
							OFFSET 0 0 0
						}
					}
				}
			}
		}
	}
	JOINT Hips_virtual
	{
		OFFSET 0.000000 0.000000 0.000000
		CHANNELS 3 Xrotation Yrotation Zrotation
		JOINT Hips
		{
			OFFSET -0.000000 -0.000000 -0.000000
			CHANNELS 3 Xrotation Yrotation Zrotation
			JOINT Spine
			{
				OFFSET 0.000000 10.199997 -0.299500
				CHANNELS 3 Xrotation Yrotation Zrotation
				JOINT Spine1
				{
					OFFSET 0.000000 11.900002 -1.516600
					CHANNELS 3 Xrotation Yrotation Zrotation
					JOINT Spine2
					{
						OFFSET 0.000000 13.600006 -2.842500
						CHANNELS 3 Xrotation Yrotation Zrotation
						JOINT Neck_virtual
						{
							OFFSET 0.000000 0.000000 0.000000
							CHANNELS 3 Xrotation Yrotation Zrotation
							JOINT Neck
							{
								OFFSET 0.000000 9.624100 -2.890100
								CHANNELS 3 Xrotation Yrotation Zrotation
								JOINT Head
								{
									OFFSET 0.000000 14.068802 -1.351900
									CHANNELS 3 Xrotation Yrotation Zrotation
									End Site
									{
										OFFSET 0 0 0
									}
								}
							}
						}
						JOINT LeftShoulder_virtual
						{
							OFFSET 0.000000 0.000000 0.000000
							CHANNELS 3 Xrotation Yrotation Zrotation
							JOINT LeftShoulder
							{
								OFFSET 15.263000 10.923401 -0.547700
								CHANNELS 3 Xrotation Yrotation Zrotation
								JOINT LeftArm
								{
									OFFSET 25.438599 -2.830597 -13.032500
									CHANNELS 3 Xrotation Yrotation Zrotation
									JOINT LeftForeArm
									{
										OFFSET 29.960503 0.000000 0.000000
										CHANNELS 3 Xrotation Yrotation Zrotation
										JOINT LeftHand
										{
											OFFSET 27.849251 0.000000 0.000000
											CHANNELS 3 Xrotation Yrotation Zrotation
											End Site
											{
												OFFSET 0 0 0
											}
										}
									}
								}
							}
						}
						JOINT RightShoulder_virtual
						{
							OFFSET 0.000000 0.000000 0.000000
							CHANNELS 3 Xrotation Yrotation Zrotation
							JOINT RightShoulder
							{
								OFFSET -15.263000 10.923401 -0.547700
								CHANNELS 3 Xrotation Yrotation Zrotation
								JOINT RightArm
								{
									OFFSET -25.438599 -2.830597 -13.032500
									CHANNELS 3 Xrotation Yrotation Zrotation
									JOINT RightForeArm
									{
										OFFSET -29.960503 0.000000 0.000000
										CHANNELS 3 Xrotation Yrotation Zrotation
										JOINT RightHand
										{
											OFFSET -27.849251 0.000000 0.000000
											CHANNELS 3 Xrotation Yrotation Zrotation
											End Site
											{
												OFFSET 0 0 0
											}
										}
									}
								}
							}
						}
					}
				}
			}
		}
	}
}
MOTION
Frames: 9
Frame Time: 0.03333333
-2.783930 87.822426 2.837284 0.000000 0.000000 0.000000 -6.078100 -42.937947 -3.789441 -34.393134 2.849955 16.371212 38.633094 -14.745549 -0.131467 -1.804974 0.989156 -11.110740 0.000000 0.000000 0.000000 -6.078100 -42.937947 -3.789441 1.083760 -13.658366 -18.458670 33.743768 -7.727702 -0.244916 -25.561496 -6.503044 21.390699 0.000000 0.000000 0.000000 -6.078100 -42.937947 -3.789441 0.000000 0.000001 0.000000 5.850291 4.526139 -1.455027 11.835727 9.038083 -3.084131 0.000000 0.000000 0.000000 11.835732 9.038085 -3.084132 -0.860981 -0.253306 0.048902 0.000000 0.000000 0.000000 11.835732 9.038085 -3.084132 1.387435 -0.696990 -7.876279 -14.260092 2.393796 -63.277113 9.865054 -47.524900 5.927945 0.000000 0.000000 0.000000 11.835732 9.038085 -3.084132 1.410930 9.461508 9.792744 1.220049 -24.270715 60.532920 -6.660695 41.858408 8.043837 0.000000 0.000000 0.000000 
-2.784065 87.819580 2.841312 0.000000 0.000000 0.000000 -6.051362 -43.016026 -3.765429 -34.381137 2.850839 16.361276 38.677770 -14.660072 -0.104251 -1.865489 0.996944 -11.125765 0.000000 0.000000 0.000000 -6.051362 -43.016026 -3.765429 0.976211 -13.649688 -18.477794 33.798484 -7.654268 -0.305426 -25.570618 -6.506655 21.393192 0.000000 0.000000 0.000000 -6.051362 -43.016026 -3.765429 0.000000 0.000000 0.000000 5.845360 4.531290 -1.464408 11.826957 9.047791 -3.104680 0.000000 0.000000 0.000000 11.826960 9.047800 -3.104677 -0.870023 -0.258080 0.044881 0.000000 0.000000 0.000000 11.826960 9.047800 -3.104677 1.387392 -0.696825 -7.876267 -14.262251 2.393779 -63.250659 9.848925 -47.561028 5.920513 0.000000 0.000000 0.000000 11.826960 9.047800 -3.104677 1.398782 9.503307 9.802045 1.235468 -24.253390 60.503598 -6.635568 41.828611 8.061757 0.000000 0.000000 0.000000 
-2.786008 87.826065 2.838776 0.000000 0.000000 0.000000 -6.021324 -43.082040 -3.732606 -34.350087 2.854058 16.342879 38.648755 -14.578106 -0.073610 -1.880372 0.999963 -11.167111 0.000000 0.000000 0.000000 -6.021324 -43.082040 -3.732606 0.892397 -13.633258 -18.486400 33.816349 -7.616860 -0.366534 -25.559265 -6.506626 21.403559 0.000000 0.000000 0.000000 -6.021324 -43.082040 -3.732606 0.000000 0.000002 0.000000 5.841513 4.528212 -1.471666 11.819972 9.041231 -3.121165 0.000000 0.000000 0.000000 11.819967 9.041238 -3.121163 -0.877789 -0.258500 0.040577 0.000000 0.000000 0.000000 11.819967 9.041238 -3.121163 1.389715 -0.709913 -7.876830 -14.244239 2.394029 -63.227239 9.904598 -47.573135 5.947292 0.000000 0.000000 0.000000 11.819967 9.041238 -3.121163 1.393258 9.523885 9.813709 1.197309 -24.211977 60.500675 -6.605041 41.712706 8.037634 0.000000 0.000000 0.000000 
-2.785941 87.825554 2.840176 0.000000 0.000000 0.000000 -5.971129 -43.154149 -3.688527 -34.351081 2.855499 16.337720 38.650736 -14.505203 -0.060041 -1.911959 1.005111 -11.193504 0.000000 0.000000 0.000000 -5.971129 -43.154149 -3.688527 0.782476 -13.609584 -18.502409 33.855062 -7.573216 -0.424749 -25.555172 -6.511372 21.417667 0.000000 0.000000 0.000000 -5.971129 -43.154149 -3.688527 0.000000 0.000001 0.000000 5.836004 4.520694 -1.476665 11.809249 9.026357 -3.132225 0.000000 0.000000 0.000000 11.809253 9.026349 -3.132227 -0.883893 -0.252505 0.031737 0.000000 0.000000 0.000000 11.809253 9.026349 -3.132227 1.389215 -0.712565 -7.883963 -14.233990 2.393106 -63.219213 9.867930 -47.596293 5.922715 0.000000 0.000000 0.000000 11.809253 9.026349 -3.132227 1.393269 9.550952 9.804896 1.182778 -24.200769 60.514349 -6.580801 41.627254 8.001245 0.000000 0.000000 0.000000 
-2.786529 87.828140 2.837030 0.000000 0.000000 0.000000 -5.926396 -43.218831 -3.646352 -34.340087 2.853296 16.319825 38.634313 -14.423520 -0.031475 -1.932607 1.005273 -11.232317 0.000000 0.000000 0.000000 -5.926396 -43.218831 -3.646352 0.685755 -13.581080 -18.509514 33.881891 -7.541176 -0.486538 -25.545230 -6.517513 21.437471 0.000000 0.000000 0.000000 -5.926396 -43.218831 -3.646352 0.000000 -0.000002 0.000000 5.833300 4.506466 -1.481218 11.803854 8.997828 -3.142078 0.000000 0.000000 0.000000 11.803859 8.997839 -3.142083 -0.889231 -0.243402 0.023454 0.000000 0.000000 0.000000 11.803859 8.997839 -3.142083 1.389182 -0.727278 -7.903651 -14.193235 2.416427 -63.198210 9.925535 -47.632667 5.957008 0.000000 0.000000 0.000000 11.803859 8.997839 -3.142083 1.394622 9.568493 9.789848 1.143560 -24.160819 60.514028 -6.548431 41.493041 7.985895 0.000000 0.000000 0.000000 
-2.778268 87.816032 2.837704 0.000000 0.000000 0.000000 -5.875907 -43.252330 -3.625787 -34.401781 2.824729 16.310623 38.711309 -14.370988 0.011440 -1.978388 1.005920 -11.259872 0.000000 0.000000 0.000000 -5.875907 -43.252330 -3.625787 0.605064 -13.554637 -18.489530 33.922971 -7.533898 -0.534312 -25.546991 -6.528758 21.461561 0.000000 0.000000 0.000000 -5.875907 -43.252330 -3.625787 0.000000 0.000001 0.000000 5.830307 4.483050 -1.477313 11.796545 8.952118 -3.131483 0.000000 0.000000 0.000000 11.796545 8.952118 -3.131481 -0.897783 -0.230162 0.015949 0.000000 0.000000 0.000000 11.796545 8.952118 -3.131481 1.387842 -0.728950 -7.915404 -14.166466 2.425160 -63.199433 9.933049 -47.698592 5.967228 0.000000 0.000000 0.000000 11.796545 8.952118 -3.131481 1.387522 9.596393 9.798583 1.148353 -24.173354 60.480178 -6.532696 41.475788 7.986704 0.000000 0.000000 0.000000 
-2.784061 87.818199 2.837227 0.000000 0.000000 0.000000 -5.855289 -43.289244 -3.590540 -34.368405 2.807433 16.263473 38.690559 -14.290678 0.055164 -1.996578 1.009152 -11.309128 0.000000 0.000000 0.000000 -5.855289 -43.289244 -3.590540 0.544713 -13.560323 -18.501681 33.944544 -7.502849 -0.598085 -25.551178 -6.535059 21.484314 0.000000 0.000000 0.000000 -5.855289 -43.289244 -3.590540 0.000000 0.000001 0.000000 5.834447 4.453840 -1.482929 11.804315 8.893256 -3.142281 0.000000 0.000000 0.000000 11.804309 8.893257 -3.142281 -0.907919 -0.214414 0.011570 0.000000 0.000000 0.000000 11.804309 8.893257 -3.142281 1.389979 -0.732070 -7.903792 -14.170284 2.428512 -63.191715 9.950646 -47.720718 5.983797 0.000000 0.000000 0.000000 11.804309 8.893257 -3.142281 1.380862 9.601770 9.807593 1.087385 -24.124681 60.474666 -6.503700 41.341697 7.945989 0.000000 0.000000 0.000000 
-2.782186 87.804550 2.842850 0.000000 0.000000 0.000000 -5.808104 -43.317633 -3.568889 -34.422746 2.766705 16.244217 38.776715 -14.225437 0.103385 -2.053813 1.007985 -11.342232 0.000000 0.000000 0.000000 -5.808104 -43.317633 -3.568889 0.475623 -13.542494 -18.479960 33.984378 -7.500372 -0.653395 -25.562357 -6.542674 21.511660 0.000000 0.000000 0.000000 -5.808104 -43.317633 -3.568889 0.000000 0.000001 0.000000 5.831438 4.421309 -1.477164 11.796428 8.829428 -3.126817 0.000000 0.000000 0.000000 11.796433 8.829415 -3.126818 -0.913594 -0.197038 0.005329 0.000000 0.000000 0.000000 11.796433 8.829415 -3.126818 1.391994 -0.717139 -7.885972 -14.150124 2.435704 -63.223298 9.980339 -47.771234 6.014898 0.000000 0.000000 0.000000 11.796433 8.829415 -3.126818 1.367401 9.656439 9.840047 1.122272 -24.144457 60.394254 -6.478644 41.335291 7.982189 0.000000 0.000000 0.000000 
-2.781615 87.801384 2.841761 0.000000 0.000000 0.000000 -5.760520 -43.325218 -3.528295 -34.442919 2.739539 16.194066 38.780629 -14.165012 0.158601 -2.064380 1.006009 -11.383249 0.000000 0.000000 0.000000 -5.760520 -43.325218 -3.528295 0.423728 -13.528883 -18.464921 33.999732 -7.520057 -0.703948 -25.561466 -6.552151 21.543590 0.000000 0.000000 0.000000 -5.760520 -43.325218 -3.528295 0.000000 0.000001 0.000000 5.834325 4.380786 -1.473241 11.800387 8.749115 -3.116192 0.000000 0.000000 0.000000 11.800386 8.749115 -3.116195 -0.923266 -0.181190 -0.000572 0.000000 0.000000 0.000000 11.800386 8.749115 -3.116195 1.386660 -0.733912 -7.854093 -14.137252 2.446210 -63.234547 10.003377 -47.795379 6.024007 0.000000 0.000000 0.000000 11.800386 8.749115 -3.116195 1.364999 9.655443 9.837856 1.069885 -24.098453 60.371475 -6.439603 41.224262 7.953293 0.000000 0.000000 0.000000 
